<svg width="310" height="144" viewBox="0 0 310 144" fill="none" xmlns="http://www.w3.org/2000/svg">
<path d="M286 0H207.48C224.16 17.92 234.37 41.94 234.37 68.35C234.37 98.54 221.04 125.61 199.94 144H286C299.25 144 310 133.25 310 120V24C310 10.75 299.25 0 286 0Z" fill="url(#paint0_linear_758_2638)"/>
<path d="M35.9 89.3897C30.43 90.4897 24.77 91.0797 18.98 91.0797C12.45 91.0797 6.11 90.3197 0 88.9297V120C0 133.25 10.75 144 24 144H68.11C52.06 130 40.51 110.98 35.9 89.3897Z" fill="url(#paint1_linear_758_2638)"/>
<path d="M35.9 89.39C34.45 82.6 33.68 75.57 33.68 68.35C33.68 41.94 43.89 17.92 60.57 0H24C10.75 0 0 10.75 0 24V88.92C6.11 90.31 12.45 91.07 18.98 91.07C24.77 91.08 30.43 90.49 35.9 89.39Z" fill="url(#paint2_linear_758_2638)"/>
<path d="M234.36 68.35C234.36 41.94 224.15 17.92 207.47 0H139.54C149.17 15.4 154.73 33.6 154.73 53.1C154.73 93.31 131.07 128 96.91 144H199.92C221.03 125.61 234.36 98.53 234.36 68.35Z" fill="url(#paint3_linear_758_2638)"/>
<path d="M103.95 6.11C103.95 47.24 74.72 81.54 35.9 89.39C40.51 110.98 52.06 130 68.11 144H96.92C131.08 127.99 154.74 93.31 154.74 53.1C154.74 33.6 149.17 15.4 139.55 0H103.7C103.85 2.02 103.95 4.05 103.95 6.11Z" fill="url(#paint4_linear_758_2638)"/>
<path d="M35.9001 89.39C74.7201 81.54 103.95 47.24 103.95 6.11C103.95 4.05 103.85 2.02 103.71 0H60.5701C43.8901 17.92 33.6801 41.94 33.6801 68.35C33.6801 75.56 34.4501 82.6 35.9001 89.39Z" fill="url(#paint5_linear_758_2638)"/>
<defs>
<linearGradient id="paint0_linear_758_2638" x1="293.23" y1="-21.3084" x2="216.43" y2="165.044" gradientUnits="userSpaceOnUse">
<stop stop-color="#002311"/>
<stop offset="0.1" stop-color="#032E20"/>
<stop offset="0.2931" stop-color="#0B4A48"/>
<stop offset="0.5601" stop-color="#197789"/>
<stop offset="0.8873" stop-color="#2BB5E1"/>
<stop offset="0.9938" stop-color="#31CAFF"/>
</linearGradient>
<linearGradient id="paint1_linear_758_2638" x1="34.0565" y1="186.346" x2="34.0565" y2="67.565" gradientUnits="userSpaceOnUse">
<stop stop-color="#0029D3"/>
<stop offset="0.095" stop-color="#0F36D6"/>
<stop offset="0.2786" stop-color="#3757DD"/>
<stop offset="0.5324" stop-color="#788EE8"/>
<stop offset="0.8432" stop-color="#D0D7F7"/>
<stop offset="1" stop-color="white"/>
</linearGradient>
<linearGradient id="paint2_linear_758_2638" x1="30.2842" y1="-10.1705" x2="30.2842" y2="105.697" gradientUnits="userSpaceOnUse">
<stop stop-color="#86C421"/>
<stop offset="1" stop-color="white"/>
</linearGradient>
<linearGradient id="paint3_linear_758_2638" x1="96.9239" y1="72" x2="234.363" y2="72" gradientUnits="userSpaceOnUse">
<stop stop-color="#0000D6"/>
<stop offset="0.117" stop-color="#0003C7"/>
<stop offset="0.343" stop-color="#000A9F"/>
<stop offset="0.6552" stop-color="#00155E"/>
<stop offset="0.9938" stop-color="#002311"/>
</linearGradient>
<linearGradient id="paint4_linear_758_2638" x1="48.2878" y1="72" x2="167.127" y2="72" gradientUnits="userSpaceOnUse">
<stop stop-color="#003013"/>
<stop offset="0.1494" stop-color="#0E3F14"/>
<stop offset="0.4379" stop-color="#326718"/>
<stop offset="0.8329" stop-color="#6CA71E"/>
<stop offset="1" stop-color="#86C421"/>
</linearGradient>
<linearGradient id="paint5_linear_758_2638" x1="33.6831" y1="44.6926" x2="103.946" y2="44.6926" gradientUnits="userSpaceOnUse">
<stop stop-color="#31CAFF"/>
<stop offset="0.1134" stop-color="#40CEFF"/>
<stop offset="0.3325" stop-color="#68D8FF"/>
<stop offset="0.6354" stop-color="#A9E9FF"/>
<stop offset="1" stop-color="white"/>
</linearGradient>
</defs>
</svg>
