<svg width="32" height="32" viewBox="0 0 32 32" fill="none" xmlns="http://www.w3.org/2000/svg">
<circle cx="16" cy="16" r="15.5" fill="white" stroke="#F5F3F3"/>
<path d="M15.7996 15.4875V18.3225L19.1773 13.4346L15.7996 15.4875Z" fill="#2F3030"/>
<path d="M15.7996 11.1934V14.8322L19.1773 12.7738L15.7996 11.1934Z" fill="black"/>
<path d="M15.7996 7V11.1931L19.1773 12.7735L15.7996 7Z" fill="#2F3030"/>
<path d="M15.7999 15.4875V18.3225L12.4221 13.4346L15.7999 15.4875Z" fill="#828384"/>
<path d="M15.7999 11.1934V14.8322L12.4221 12.7738L15.7999 11.1934Z" fill="#343535"/>
<path d="M15.7999 7V11.1931L12.4221 12.7735L15.7999 7Z" fill="#828384"/>
<path d="M5.16994 21.9598C5.19284 22.3291 5.48546 22.7903 5.98202 22.7903C6.32117 22.7903 6.52629 22.6288 6.67044 22.421C6.68486 22.4033 6.70495 22.3916 6.72707 22.3879C6.74919 22.3842 6.77186 22.3888 6.79096 22.4009C6.80098 22.4069 6.80969 22.415 6.81655 22.4246C6.82341 22.4342 6.82828 22.4452 6.83086 22.4568C6.83344 22.4685 6.83366 22.4805 6.83153 22.4923C6.82939 22.504 6.82494 22.5151 6.81844 22.525C6.72655 22.6682 6.59992 22.7841 6.45112 22.8612C6.30233 22.9384 6.13654 22.9741 5.9702 22.9648C5.64962 22.9648 5.4158 22.791 5.2449 22.6015C5.10582 22.4483 5 22.1881 5 21.8739C5 21.5651 5.09055 21.3155 5.27166 21.1249C5.45268 20.9342 5.66962 20.7959 5.97069 20.7959C6.27175 20.7959 6.48893 20.9124 6.66128 21.1028C6.88352 21.3484 6.94378 21.6015 6.9527 21.8689C6.95304 21.8807 6.95108 21.8925 6.94694 21.9035C6.9428 21.9145 6.93656 21.9245 6.9286 21.933C6.92067 21.9415 6.91116 21.9483 6.90064 21.9529C6.89012 21.9575 6.8788 21.9598 6.86737 21.9598H5.16994ZM5.96924 20.9665C5.74772 20.9682 5.58236 21.0688 5.44039 21.1977C5.29841 21.3266 5.20103 21.5702 5.17765 21.7959H6.75963C6.74365 21.5802 6.65685 21.3765 6.51352 21.2183C6.38769 21.0797 6.25681 20.9633 5.96924 20.9653V20.9665Z" fill="#231F20"/>
<path d="M12.9983 21.9598C13.0202 22.3291 13.3138 22.79 13.8104 22.791C14.1498 22.791 14.3547 22.6296 14.4988 22.4217C14.5132 22.4044 14.533 22.3928 14.5549 22.3891C14.5767 22.3855 14.5991 22.3899 14.6181 22.4016C14.6281 22.4076 14.6368 22.4157 14.6437 22.4253C14.6506 22.4349 14.6555 22.4459 14.6581 22.4575C14.6607 22.4692 14.6609 22.4812 14.6588 22.493C14.6567 22.5047 14.6523 22.5159 14.6459 22.5258C14.5539 22.6688 14.4274 22.7846 14.2787 22.8617C14.13 22.9389 13.9643 22.9747 13.7981 22.9656C13.4775 22.9656 13.2437 22.7917 13.0728 22.6023C12.9347 22.4483 12.8286 22.188 12.8286 21.8739C12.8286 21.5651 12.9192 21.3155 13.1003 21.1249C13.2813 20.9342 13.4982 20.7959 13.7993 20.7959C14.1004 20.7959 14.3175 20.9124 14.4899 21.1028C14.7121 21.3484 14.7724 21.6015 14.7813 21.8689C14.7817 21.8807 14.7797 21.8925 14.7756 21.9035C14.7714 21.9145 14.7652 21.9245 14.7572 21.933C14.7493 21.9415 14.7398 21.9483 14.7293 21.9529C14.7187 21.9575 14.7074 21.9598 14.696 21.9598H12.9983ZM13.7976 20.9665C13.5761 20.9682 13.4107 21.0688 13.2688 21.1977C13.1268 21.3266 13.0294 21.5702 13.006 21.7959H14.5875C14.5714 21.5807 14.4848 21.3775 14.3419 21.2196C14.2161 21.0797 14.0852 20.9633 13.7981 20.9653L13.7976 20.9665Z" fill="#231F20"/>
<path d="M17.843 21.9598C17.865 22.3291 18.1586 22.7903 18.6551 22.7903C18.9943 22.7903 19.1994 22.6288 19.3435 22.421C19.358 22.4033 19.3781 22.3916 19.4002 22.3879C19.4223 22.3842 19.445 22.3888 19.4641 22.4009C19.4741 22.4069 19.4828 22.4149 19.4897 22.4246C19.4965 22.4342 19.5014 22.4452 19.504 22.4568C19.5065 22.4685 19.5068 22.4805 19.5046 22.4923C19.5025 22.504 19.498 22.5151 19.4915 22.525C19.3997 22.6683 19.2731 22.7844 19.1242 22.8617C18.9754 22.9389 18.8095 22.9748 18.6431 22.9656C18.3227 22.9656 18.0887 22.7917 17.918 22.6023C17.7799 22.4483 17.6738 22.188 17.6738 21.8739C17.6738 21.5651 17.7644 21.3155 17.9455 21.1249C18.1265 20.9342 18.3434 20.7959 18.6431 20.7959C18.9427 20.7959 19.1616 20.9124 19.3339 21.1028C19.5561 21.3484 19.6164 21.6015 19.6251 21.8689C19.6255 21.8808 19.6236 21.8925 19.6195 21.9035C19.6153 21.9146 19.609 21.9246 19.601 21.933C19.593 21.9415 19.5835 21.9482 19.573 21.9528C19.5625 21.9574 19.5512 21.9598 19.5398 21.9598H17.843ZM18.6421 20.9665C18.4208 20.9682 18.2564 21.0688 18.1135 21.1977C17.9706 21.3266 17.8741 21.5702 17.8508 21.7959H19.4322C19.4161 21.5807 19.3295 21.3775 19.1866 21.2196C19.0608 21.0797 18.9297 20.9633 18.6431 20.9653L18.6421 20.9665Z" fill="#231F20"/>
<path d="M8.53757 21.0027V22.8558C8.5375 22.8773 8.52915 22.898 8.51434 22.9133C8.49953 22.9285 8.47945 22.9371 8.4585 22.9372C8.43755 22.9371 8.41748 22.9285 8.40267 22.9133C8.38785 22.898 8.3795 22.8773 8.37944 22.8558V21.0027H7.92748C7.90715 21.0027 7.88766 20.9944 7.87328 20.9796C7.85891 20.9648 7.85083 20.9447 7.85083 20.9237C7.85083 20.9028 7.85891 20.8827 7.87328 20.8679C7.88766 20.8531 7.90715 20.8448 7.92748 20.8448H8.37944V20.1584C8.3795 20.1366 8.38793 20.1157 8.40288 20.1003C8.41783 20.0849 8.43809 20.0762 8.45923 20.0762H8.46091C8.48118 20.0762 8.50061 20.0845 8.51496 20.0993C8.52931 20.114 8.53744 20.134 8.53757 20.1549V20.8445H9.00375C9.02408 20.8445 9.04357 20.8528 9.05795 20.8676C9.07232 20.8825 9.0804 20.9025 9.0804 20.9235C9.0804 20.9444 9.07232 20.9645 9.05795 20.9793C9.04357 20.9941 9.02408 21.0025 9.00375 21.0025L8.53757 21.0027Z" fill="#231F20"/>
<path d="M11.0846 20.8208C10.7713 20.7764 10.4731 20.8839 10.268 21.2328V19.1764C10.2679 19.1555 10.2599 19.1355 10.2455 19.1208C10.2312 19.106 10.2118 19.0977 10.1916 19.0977H10.1899C10.1687 19.0977 10.1484 19.1064 10.1335 19.1218C10.1185 19.1372 10.11 19.1581 10.1099 19.1799V22.8552C10.1099 22.8768 10.1183 22.8974 10.1331 22.9127C10.1479 22.928 10.168 22.9366 10.1889 22.9366C10.2098 22.9365 10.2298 22.9279 10.2446 22.9126C10.2594 22.8974 10.2677 22.8767 10.2677 22.8552V21.6135C10.2677 21.2658 10.6958 20.8909 11.0839 20.9805C11.3341 21.0381 11.5841 21.2937 11.5831 21.7027V22.8559C11.5832 22.8775 11.5915 22.8982 11.6064 22.9134C11.6212 22.9287 11.6412 22.9373 11.6622 22.9374C11.6831 22.9373 11.7032 22.9287 11.718 22.9134C11.7328 22.8982 11.7412 22.8775 11.7413 22.8559V21.7056C11.7641 21.355 11.5294 20.8842 11.0846 20.8208Z" fill="#231F20"/>
<path d="M21.3622 22.973C21.6755 23.0177 21.9739 22.9099 22.1788 22.561V22.8567C22.1789 22.8776 22.187 22.8977 22.2014 22.9124C22.2157 22.9272 22.2352 22.9355 22.2555 22.9355H22.2572C22.2783 22.9354 22.2986 22.9267 22.3135 22.9113C22.3285 22.8959 22.3369 22.8751 22.337 22.8533V20.9386C22.3369 20.9171 22.3285 20.8964 22.3137 20.8812C22.2989 20.866 22.2788 20.8574 22.2579 20.8574C22.237 20.8575 22.217 20.8661 22.2021 20.8813C22.1873 20.8965 22.179 20.9171 22.1788 20.9386L22.1885 21.9533C22.1885 22.4798 21.7898 22.9014 21.3723 22.8101C21.1214 22.7552 20.8627 22.5011 20.8637 22.0919V20.9386C20.8636 20.9171 20.8552 20.8965 20.8404 20.8813C20.8256 20.8661 20.8055 20.8575 20.7846 20.8574C20.7637 20.8575 20.7437 20.8661 20.729 20.8813C20.7142 20.8965 20.7059 20.9171 20.7058 20.9386V22.0884C20.7056 22.518 20.9174 22.9096 21.3622 22.973Z" fill="#231F20"/>
<path d="M25.9414 20.8215C25.6331 20.7778 25.2443 20.9151 25.0818 21.3641C24.9873 21.1046 24.7743 20.8655 24.4662 20.8215C24.1528 20.7771 23.8518 20.8756 23.6467 21.2243V20.9283C23.6466 20.9074 23.6385 20.8873 23.6241 20.8725C23.6098 20.8577 23.5903 20.8494 23.57 20.8493H23.5683C23.5472 20.8494 23.5269 20.8581 23.512 20.8735C23.497 20.8889 23.4886 20.9097 23.4885 20.9315V22.8462C23.4886 22.8677 23.4969 22.8883 23.5117 22.9036C23.5264 22.9188 23.5464 22.9275 23.5673 22.9276C23.5883 22.9275 23.6084 22.9189 23.6232 22.9037C23.638 22.8884 23.6463 22.8677 23.6464 22.8462L23.6368 21.8317C23.6368 21.305 24.0381 20.8928 24.4563 20.9839C24.6974 21.0368 24.9461 21.274 24.9637 21.6562V22.8462C24.9635 22.849 24.9635 22.852 24.9637 22.8548C24.9637 22.8995 25.0119 22.9363 25.0553 22.9363C25.0763 22.9362 25.0963 22.9276 25.1112 22.9124C25.126 22.8971 25.1343 22.8764 25.1344 22.8548V22.5782C25.1344 22.3959 25.1358 22.156 25.1358 21.97C25.1358 21.4014 25.3846 20.8975 25.9313 20.9844C26.1849 21.0249 26.4408 21.2936 26.4401 21.7026V22.8558C26.4402 22.8774 26.4485 22.898 26.4633 22.9133C26.478 22.9285 26.498 22.9372 26.5189 22.9373C26.5399 22.9372 26.56 22.9286 26.5748 22.9134C26.5896 22.8981 26.5979 22.8774 26.598 22.8558V21.7063C26.6216 21.3557 26.3861 20.8848 25.9414 20.8215Z" fill="#231F20"/>
<path d="M16.8514 20.9361C16.8514 20.924 16.8487 20.912 16.8436 20.901C16.8385 20.8901 16.8311 20.8804 16.822 20.8728C16.8026 20.8591 16.779 20.8532 16.7557 20.8562C16.4303 20.8646 16.1227 21.1383 16.0436 21.3474V20.9227C16.0436 20.9018 16.0355 20.8817 16.0211 20.867C16.0067 20.8522 15.9873 20.8438 15.967 20.8438H15.9653C15.9441 20.8438 15.9238 20.8525 15.9089 20.868C15.8939 20.8834 15.8855 20.9044 15.8855 20.9262V22.8408C15.8856 22.8624 15.8939 22.8831 15.9087 22.8984C15.9235 22.9136 15.9436 22.9222 15.9646 22.9223C15.9855 22.9222 16.0056 22.9136 16.0204 22.8984C16.0352 22.8831 16.0436 22.8624 16.0436 22.8408L16.0487 21.8825C16.0487 21.4229 16.3924 21.033 16.7901 21.0134C16.8077 21.0106 16.8236 21.0012 16.8349 20.9871C16.8462 20.973 16.8521 20.9551 16.8514 20.9369V20.9361Z" fill="#231F20"/>
</svg>
