<svg width="32" height="32" viewBox="0 0 32 32" fill="none" xmlns="http://www.w3.org/2000/svg">
<path d="M27 6H5C3.89543 6 3 6.89543 3 8V24C3 25.1046 3.89543 26 5 26H27C28.1046 26 29 25.1046 29 24V8C29 6.89543 28.1046 6 27 6Z" fill="#86C421"/>
<path d="M19 14H29V18H19C18.4696 18 17.9609 17.7893 17.5858 17.4142C17.2107 17.0391 17 16.5304 17 16V16C17 15.4696 17.2107 14.9609 17.5858 14.5858C17.9609 14.2107 18.4696 14 19 14V14Z" stroke="white" stroke-width="2" stroke-miterlimit="10" stroke-linecap="round"/>
</svg>
