<svg width="60" height="44" viewBox="0 0 60 44" fill="none" xmlns="http://www.w3.org/2000/svg">
<path d="M20.1571 43.64C16.9717 44.7713 13.4381 43.1694 12.2807 40.0459L0.368765 8.05954C-0.788627 4.94601 0.8604 1.50209 4.04579 0.360796C7.23118 -0.77049 10.7648 0.831331 11.9222 3.95488L23.8341 35.9412C24.9915 39.0548 23.3527 42.5087 20.1571 43.64Z" fill="#86C421"/>
<path d="M15.9474 43.64C19.1328 44.7713 22.6665 43.1694 23.8238 40.0459L35.7255 8.05954C36.8829 4.94601 35.2441 1.49208 32.0485 0.360796C28.8631 -0.77049 25.3295 0.831331 24.1721 3.95488L12.2704 35.9412C11.113 39.0548 12.7518 42.5087 15.9474 43.64Z" fill="#8DD541"/>
<path d="M44.0526 43.64C40.8673 44.7713 37.3336 43.1694 36.1762 40.0459L24.2746 8.05954C23.1172 4.94601 24.756 1.49208 27.9516 0.360796C31.137 -0.77049 34.6706 0.831331 35.828 3.95488L47.7297 35.9412C48.8871 39.0548 47.2483 42.5087 44.0526 43.64Z" fill="#86C421"/>
<path d="M39.8429 43.64C43.0283 44.7713 46.562 43.1694 47.7193 40.0459L59.6313 8.05954C60.7887 4.94601 59.1499 1.49208 55.9542 0.360796C52.7689 -0.77049 49.2352 0.831331 48.0778 3.95488L36.1659 35.9412C35.0085 39.0548 36.6473 42.5087 39.8429 43.64Z" fill="#8DD541"/>
</svg>
